<svg xmlns="http://www.w3.org/2000/svg" viewBox="0 0 900 265">
<g>
	<path fill="currentColor" fill-rule="nonzero" d="M98.1,62.5c-17.8,0-29.6,6.9-38,17V34.9V2H2v32.9h14.4v168.9h42.3v-14.7c8.4,10.8,20.7,18.4,39.4,18.4
		c36.7,0,64-31.8,64-72.6C162.1,94.5,134.8,62.5,98.1,62.5z M87.5,166.5c-17.2,0-29.3-13.3-29.3-31.5c0-18.2,12.1-31.5,29.3-31.5
		c17.7,0,29.4,13.6,29.4,31.5C117,152.9,105.2,166.5,87.5,166.5z"/>
	<path fill="currentColor" fill-rule="nonzero" d="M314.9,62.5c-43,0-74.6,30.8-74.6,72.4c0,41.6,31.5,72.5,74.6,72.5c43,0,74.7-30.8,74.7-72.5
		C389.6,93.4,357.9,62.5,314.9,62.5z M314.9,166.5c-17.1,0-29.7-13-29.7-31.5c0-18.5,12.6-31.5,29.7-31.5c17.2,0,29.8,13,29.8,31.5
		C344.8,153.5,332.2,166.5,314.9,166.5z"/>
	<path fill="currentColor" fill-rule="nonzero" d="M504.8,80.6c-8.3-10.6-20.3-18.1-38.4-18.1c-36.9,0-63.8,30.7-63.8,69.5c0,39,26.9,69.4,63.8,69.4
		c17.8,0,29.6-6.9,37.8-17.4v8.5c0,21.9-16.7,31.7-34.6,31.7c-16.4,0-30.7-4.5-44.1-14l-15.6,34.9c16.5,11.6,39.7,17.5,62.8,17.5
		c45,0,74.6-26.8,74.6-72V66.3h-42.5V80.6z M476.7,161.5c-17.2,0-28.9-12.8-28.9-29.4c0-16.8,11.6-29.4,28.9-29.4
		c16.5,0,28,12.6,28,29.4C504.8,148.9,493.3,161.5,476.7,161.5z"/>
	<polygon fill="currentColor" fill-rule="nonzero" points="695.9,2 533,2 533,45.4 591.1,45.4 591.1,203.8 637.9,203.8 637.9,45.4 695.9,45.4 	"/>
	<path fill="currentColor" fill-rule="nonzero" d="M794.6,4C734,4,691.2,47,691.2,105.7S734,207.4,794.6,207.4c60.5,0,103.4-43,103.4-101.7S855.1,4,794.6,4z
		 M794.6,162.6c-32,0-54.7-23.3-54.7-56.9c0-33.6,22.7-56.9,54.7-56.9c31.9,0,54.7,23.3,54.7,56.9
		C849.2,139.3,826.5,162.6,794.6,162.6z"/>
	<polygon fill="currentColor" fill-rule="nonzero" points="165.1,2 165.1,34.9 179.3,34.9 179.3,203.8 223.2,203.8 223.2,34.9 223.2,2 	"/>
</g>
</svg>