<svg xmlns="http://www.w3.org/2000/svg" viewBox="0 0 746.877 157.136" role="img" aria-labelledby="citynews-title">
<title id="citynews-title">citynews logo</title>
<path fill="currentColor" fill-rule="nonzero" d="M345.229,10.233l34.284-0.099l22.751,76.907h0.35l23.254-77.01l32.317-0.07l-37.866,117.736l-34.298,0.084l-22.362-76.888
	h-0.361l-23.603,77.02l-32.315,0.075L345.229,10.233z"/>
<path fill="currentColor" fill-rule="nonzero" d="M461.77,91.91c-0.335,1.635-0.639,2.962-0.896,5.753c0.058,8.901,5.161,13.644,15.219,13.614
	c10.42,0,15.797-3.643,18.66-9.41l29.817-0.068c-9.294,20.465-28.897,28.414-51.529,28.471
	c-25.839,0.059-43.56-11.922-41.188-37.145c2.86-30.322,26.751-53.291,60.499-53.377c24.079-0.045,41.368,12.601,39.021,37.321
	c-0.46,5.099-1.265,9.868-2.451,14.668L461.77,91.91z M502.034,76.156c1.793-9.565-2.312-17.474-12.543-17.446
	c-12.575,0.045-19.86,6.795-24.092,17.532L502.034,76.156z"/>
<path fill="currentColor" fill-rule="nonzero" d="M528.258,42.13l30.349-0.086l-3.268,59.318h0.347l32.362-59.374l29.452-0.083l-3.629,59.325h0.381l32.691-59.398
	l32.147-0.087l-56.529,85.664l-31.639,0.071l3.512-58.003h-0.363l-32.414,58.072l-31.612,0.09L528.258,42.13z"/>
<path fill="currentColor" fill-rule="nonzero" d="M679.231,99.442c-0.515,3.974,0.692,6.751,2.647,8.874c2.674,2.442,6.896,3.369,11.751,3.309
	c5.203-0.088,13.786-2.023,14.367-8.936c0.638-7.427-6.706-7.655-21.321-10.908c-13.41-2.631-25.076-6.923-23.717-23.095
	c1.908-22.926,27.564-29.386,47.493-29.649c19.382-0.229,39.197,5.264,36.104,27.233l-27.648,0.349
	c0.418-2.949-0.058-5.593-1.717-7.387c-1.64-1.95-5.496-2.895-8.907-2.85c-6.287,0.09-13.993,2.169-14.494,8.253
	c-0.51,6.117,9.263,7.156,20.017,9.484c16.88,3.744,26.463,7.214,25.061,24.035c-2.196,26.233-28.443,31.364-50.37,31.664
	c-23.687,0.309-38.257-7.759-37.288-30.015L679.231,99.442z"/>
<path fill="currentColor" fill-rule="nonzero" d="M85.175,50.373c-1.185-12.836-9.253-20.207-21.941-20.207c-14.223,0-22.795,12.154-22.795,35.986
	c0,17.302,3.772,33.576,24.34,33.576c13.026,0,19.211-9.064,20.739-20.914h38.884c-3.599,31.871-26.377,51.076-58.927,51.076
	C24.688,129.89,0,104.859,0,64.767C0,24.848,27.07,0,61.53,0c37.69,0,58.768,18.689,62.017,50.373H85.175z"/>
<path fill="currentColor" fill-rule="nonzero" d="M130.454,126.64V36.842h35.643v89.798H130.454z M130.454,0h35.643v25.352h-35.643V0z"/>
<path fill="currentColor" fill-rule="nonzero" d="M232.22,126.626c-46.798,2.574-52.436-0.695-52.436-31.711V57.394h-15.523v-20.58h16.029V8.888h35.137v27.926h17.128v20.58
	h-17.128v32.553c0,8.207,1.201,11.154,11.13,11.154h5.663V126.626z"/>
<path fill="currentColor" fill-rule="nonzero" d="M274.136,92.169l15.584-55.355h34.271l-28.781,83.801c-9.429,27.794-13.184,36.521-44.893,36.521
	c-6.503,0-13.006-0.681-15.779-0.681v-24.858c2.601,0,4.981,0.176,7.384,0.176c11.143,0,13.715-3.269,10.1-13.225l-29.453-81.734
	h35.788L274.136,92.169z"/>
</svg>
