<svg xmlns="http://www.w3.org/2000/svg" viewBox="0 0 389.9 146.7" role="img" aria-labelledby="torontolife-title">
<title id="torontolife-title">toronto life logo</title>
  <path fill="currentColor" fill-rule="nonzero" d="M58.3,76.5h12v70.2h-12V76.5z M265.5,51.5l-17.8-51h-16.2v70.2h11.5V19.1l18.1,51.6H277V0.5
    h-11.5V51.5z M191.6,59.7c12.9,0,23.4-10.8,23.4-24.1c0-13.3-10.5-24.1-23.4-24.1c-12.9,0-23.4,10.8-23.4,24.1
    C168.2,48.9,178.7,59.7,191.6,59.7 M191.6,0c19.6,0,35.6,16,35.6,35.6s-16,35.6-35.6,35.6c-19.6,0-35.6-16-35.6-35.6S172,0,191.6,0
    M14.6,70.7h12v-59h14.6V0.5H0v11.2h14.6V70.7z M71.1,59.7c12.9,0,23.4-10.8,23.4-24.1c0-13.3-10.5-24.1-23.4-24.1
    c-12.9,0-23.4,10.8-23.4,24.1C47.7,48.9,58.2,59.7,71.1,59.7 M106.7,35.6c0,19.6-16,35.6-35.6,35.6c-19.6,0-35.6-16-35.6-35.6
    C35.5,16,51.5,0,71.1,0C90.7,0,106.7,16,106.7,35.6 M324.5,0.5h-41.3v11.2h14.6v59h12v-59h14.6V0.5z M354.3,59.7
    c12.9,0,23.4-10.8,23.4-24.1c0-13.3-10.5-24.1-23.4-24.1c-12.9,0-23.4,10.8-23.4,24.1C330.9,48.9,341.4,59.7,354.3,59.7 M354.3,0
    c19.6,0,35.6,16,35.6,35.6s-16,35.6-35.6,35.6c-19.6,0-35.6-16-35.6-35.6S334.7,0,354.3,0 M77.8,146.7h12v-30.5h25.9V105H89.8V87.7
    h26.7V76.5H77.8V146.7z M132.3,30.2c6,0,9.5-4.3,9.5-9.4c0-5.1-3.4-9-9.5-9H123v18.4H132.3z M133.3,41.4H123v29.3h-12V0.5h22
    c11.2,0,20.9,8.1,20.9,20.3c0,7.3-3.7,13.9-9.8,17.2l18.2,32.7h-13.8L133.3,41.4z M26.7,76.5h-12v70.2h37.8v-11.2H26.7V76.5z
    M123,146.7h42.3v-11.2h-30.3v-19.2h28.2V105h-28.2V87.7h30.3V76.5H123V146.7z"></path>
</svg>