<svg xmlns="http://www.w3.org/2000/svg" viewBox="0 0 1000 100" role="img" aria-labelledby="blogto-title">
<title id="torontostar-title">torontostar logo</title>

  <g
     transform="translate(184.82897,-437.12676)">
    <g
       transform="matrix(1.25,0,0,-1.25,753.95978,442.12676)">
      <path
         d="m 0,0 4.644,0 -23.33,-39.874 23.327,-39.91 -4.645,0 -23.234,39.91 L 0,0 z"
         style="fill:#ffffff;fill-opacity:1;fill-rule:nonzero;stroke:none"
          />
    </g>
    <g
       transform="matrix(1.25,0,0,-1.25,-168.54522,442.12676)">
      <path
         d="m 0,0 -4.645,0 23.328,-39.874 -23.324,-39.91 4.643,0 23.234,39.91 L 0,0 z"
         style="fill:#ffffff;fill-opacity:1;fill-rule:nonzero;stroke:none"
/>
    </g>
    <g
       transform="matrix(1.25,0,0,-1.25,-174.34522,541.85676)">
      <path
         d="m 0,0 23.323,39.91 -23.327,39.874 -4.382,0 L 19.096,39.887 -4.378,0 0,0 z"
         fill="currentColor"
         style="fill-opacity:1;fill-rule:nonzero;stroke:none"
/>
    </g>
    <g
       transform="matrix(1.25,0,0,-1.25,753.95978,442.12676)">
      <path
         d="m 0,0 -738.003,0 23.236,-39.874 -23.234,-39.91 737.997,0 -23.234,39.91 L 0,0 z"
         fill="currentColor"
         style="fill-opacity:1;fill-rule:nonzero;stroke:none"
/>
    </g>
    <g
       transform="matrix(1.25,0,0,-1.25,759.76103,541.85676)">
      <path
         d="m 0,0 -23.327,39.91 23.33,39.874 4.38,0 L -19.101,39.887 4.376,0 0,0 z"
         fill="currentColor"
         style="fill-opacity:1;fill-rule:nonzero;stroke:none"
/>
    </g>
    <g
       transform="matrix(1.25,0,0,-1.25,320.14478,478.19788)">
      <path
         d="m 0,0 -1.528,-0.272 c -3.8,10.47 -8.759,15.652 -16.66,15.652 l -3.54,0 0,-46.48 c 0,-2.951 2.152,-4.902 9.441,-5.038 l 0,-1.157 -30.059,0 0,1.157 c 7.219,0.272 9.371,2.087 9.371,5.038 l 0,46.48 -3.679,0 c -7.711,0 -13.224,-5.18 -16.59,-15.652 L -54.772,0 l 1.597,17.15 51.647,0 L 0,0"
         style="fill:#ffffff;fill-opacity:1;fill-rule:nonzero;stroke:none"
 />
    </g>
    <g
       transform="matrix(1.25,0,0,-1.25,250.20478,458.20676)">
      <path
         d="m 0,0 c -7.87,-1.253 -9.303,-4.189 -9.303,-11.706 l 0,-42.875 -4.304,0 -36.097,46.55 -0.138,0 0,-32.191 c 0,-7.504 1.656,-10.813 10.203,-11.909 l 0,-1.158 -22.422,0 0,1.158 c 7.881,1.177 9.719,4.403 9.719,11.909 l 0,31.578 c 0,4.604 -2.466,8.408 -9.719,8.644 l 0,1.156 19.647,0 30.403,-39.471 0.21,0 0,26.609 c 0,7.485 -2.223,10.606 -10.622,11.706 l 0,1.156 L 0,1.156 0,0"
         style="fill:#ffffff;fill-opacity:1;fill-rule:nonzero;stroke:none"
 />
    </g>
    <g
       transform="matrix(1.25,0,0,-1.25,-42.651465,478.19788)">
      <path
         d="m 0,0 -1.528,-0.272 c -3.801,10.47 -8.759,15.652 -16.659,15.652 l -3.542,0 0,-46.48 c 0,-2.951 2.154,-4.902 9.441,-5.038 l 0,-1.157 -30.057,0 0,1.157 c 7.218,0.272 9.371,2.087 9.371,5.038 l 0,46.48 -3.679,0 c -7.712,0 -13.225,-5.18 -16.592,-15.652 L -54.771,0 l 1.597,17.15 51.646,0 L 0,0"
         style="fill:#ffffff;fill-opacity:1;fill-rule:nonzero;stroke:none"
/>
    </g>
    <g
       transform="matrix(1.25,0,0,-1.25,377.23978,490.95939)">
      <path
         d="m 0,0 c 0,18.92 -5.857,26.951 -16.034,26.951 -10.166,0 -16.037,-8.167 -16.037,-26.884 0,-19.122 5.858,-26.88 16.037,-26.88 C -5.949,-26.813 0,-18.919 0,0 m 11.94,0.204 c 0,-17.214 -12.975,-28.787 -27.974,-28.787 -15.499,0 -27.976,11.224 -27.976,28.516 0,17.134 12.894,28.718 27.976,28.718 15.412,0 27.974,-11.158 27.974,-28.447"
         style="fill:#ffffff;fill-opacity:1;fill-rule:nonzero;stroke:none"
/>
    </g>
    <g
       transform="matrix(1.25,0,0,-1.25,157.18478,490.95939)">
      <path
         d="m 0,0 c 0,18.92 -5.859,26.883 -16.036,26.883 -10.166,0 -16.035,-8.099 -16.035,-26.816 0,-19.122 5.859,-26.88 16.035,-26.88 C -5.95,-26.813 0,-18.919 0,0 m 11.939,0.204 c 0,-17.214 -12.976,-28.787 -27.975,-28.787 -15.495,0 -27.974,11.224 -27.974,28.516 0,17.134 12.895,28.718 27.974,28.718 15.413,0 27.975,-11.158 27.975,-28.447"
         style="fill:#ffffff;fill-opacity:1;fill-rule:nonzero;stroke:none"
 />
    </g>
    <g
       transform="matrix(1.25,0,0,-1.25,80.389785,474.11551)">
      <path
         d="m 0,0 c 0,7.238 -3.748,12.114 -14.231,12.114 l -5.274,0 0,-25.182 5.066,0 C -4.511,-13.068 0,-8.123 0,0 m 24.715,-40.562 -19.3,0 c -2.291,2.316 -5.637,6.149 -9.51,12.183 -7.777,12.116 -9.164,13.543 -13.746,13.543 l -1.664,0 0,-19.531 c 0,-3.127 1.139,-4.797 8.33,-5.037 l 0,-1.158 -28.324,0 0,1.158 c 7.444,0.24 8.539,2.068 8.539,5.037 l 0,42.124 c 0,2.893 -1.097,4.729 -8.539,4.97 l 0,1.156 27.004,0 c 15.411,0 24.089,-4.898 24.089,-13.747 0,-6.482 -6.179,-12.454 -17.702,-14.495 l 0,-0.137 c 4.442,-0.884 7.528,-3.076 11.732,-8.711 l 4.721,-6.329 c 5.115,-6.859 8.606,-9.732 14.37,-9.868 l 0,-1.158"
         style="fill:#ffffff;fill-opacity:1;fill-rule:nonzero;stroke:none"
/>
    </g>
    <g
       transform="matrix(1.25,0,0,-1.25,14.357284,490.95939)">
      <path
         d="m 0,0 c 0,18.92 -5.857,26.951 -16.037,26.951 -10.164,0 -16.035,-8.167 -16.035,-26.884 0,-19.122 5.858,-26.88 16.035,-26.88 C -5.952,-26.813 0,-18.919 0,0 m 11.94,0.204 c 0,-17.214 -12.978,-28.787 -27.977,-28.787 -15.495,0 -27.974,11.224 -27.974,28.516 0,17.134 12.895,28.718 27.974,28.718 15.415,0 27.977,-11.158 27.977,-28.447"
         style="fill:#ffffff;fill-opacity:1;fill-rule:nonzero;stroke:none"
 />
    </g>
    <g
       transform="matrix(1.25,0,0,-1.25,557.93478,478.19788)">
      <path
         d="m 0,0 -1.528,-0.272 c -3.801,10.47 -8.759,15.652 -16.661,15.652 l -3.543,0 0,-46.48 c 0,-2.951 1.596,-4.902 8.889,-5.038 l 0,-1.157 -29.502,0 0,1.157 c 7.219,0.272 9.368,2.087 9.368,5.038 l 0,46.48 -3.679,0 c -7.708,0 -13.224,-5.18 -16.59,-15.652 L -54.772,0 l 1.598,17.15 51.646,0 L 0,0"
         style="fill:#ffffff;fill-opacity:1;fill-rule:nonzero;stroke:none"
/>
    </g>
    <g
       transform="matrix(1.25,0,0,-1.25,491.11978,505.67551)">
      <path
         d="m 0,0 c 0,-10.004 -8.608,-16.81 -24.019,-16.81 -8.399,0 -14.446,2.195 -18.396,4.151 l -2.707,-3.265 -0.901,0 -1.669,18.237 1.388,0.273 c 5.278,-12.113 10.762,-17.626 22.425,-17.626 8.799,0 14.577,4.968 14.577,10.957 0,5.92 -3.095,8.565 -13.956,12.114 l -7.704,2.518 c -8.293,2.709 -14.995,7.155 -14.995,15.787 0,9.598 8.818,14.088 20.894,14.088 7.361,0 12.915,-2.245 15.966,-4.082 l 1.875,2.926 1.043,0 1.458,-17.286 -1.458,-0.273 c -3.678,10.822 -9.093,16.947 -18.95,16.947 -7.359,0 -11.455,-4.016 -11.455,-8.576 0,-5.514 4.116,-7.484 11.521,-9.868 l 9.095,-2.927 C -6.71,14.307 0,9.459 0,0"
         style="fill:#ffffff;fill-opacity:1;fill-rule:nonzero;stroke:none"
 />
    </g>
    <g
       transform="matrix(1.25,0,0,-1.25,673.25478,474.11551)">
      <path
         d="m 0,0 c 0,7.238 -3.75,12.114 -14.23,12.114 l -5.277,0 0,-25.182 5.066,0 C -4.51,-13.068 0,-8.123 0,0 m 24.713,-40.562 -19.299,0 c -2.292,2.316 -5.636,6.149 -9.508,12.183 -7.778,12.116 -9.166,13.543 -13.748,13.543 l -1.665,0 0,-19.531 c 0,-3.127 1.138,-4.797 8.333,-5.037 l 0,-1.158 -28.324,0 0,1.158 c 7.441,0.24 8.536,2.068 8.536,5.037 l 0,42.057 c 0,2.891 -1.098,4.796 -8.536,5.037 l 0,1.156 27.002,0 c 15.412,0 24.089,-4.897 24.089,-13.747 0,-6.482 -6.179,-12.454 -17.7,-14.495 l 0,-0.137 c 4.44,-0.884 7.527,-3.076 11.729,-8.711 l 4.722,-6.329 c 5.115,-6.859 8.606,-9.732 14.369,-9.868 l 0,-1.158"
         style="fill:#ffffff;fill-opacity:1;fill-rule:nonzero;stroke:none"
 />
    </g>
    <g
       transform="matrix(1.25,0,0,-1.25,590.99478,497.59426)">
      <path
         d="m 0,0 -8.747,24.092 -0.35,0 L -18.117,0 0,0 z m 26.587,-21.779 -28.392,0 0,1.158 c 5.806,0.289 7.786,1.136 7.775,3.335 -0.006,0.788 -0.262,1.753 -0.695,2.926 l -4.72,12.794 -19.368,0 -2.428,-6.125 c -1.323,-3.33 -1.806,-5.787 -1.806,-7.622 0,-3.262 2.012,-4.696 6.802,-5.308 l 0,-1.158 -18.949,0 0,1.158 c 5.412,1.021 8.421,4.274 11.797,12.794 l 16.733,42.195 5.482,0 17.98,-47.639 c 1.806,-4.784 3.395,-6.486 9.789,-7.35 l 0,-1.158"
         style="fill:#ffffff;fill-opacity:1;fill-rule:nonzero;stroke:none"
 />
    </g>
  </g>
</svg>
