<?xml version="1.0" standalone="no"?>
<!DOCTYPE svg PUBLIC "-//W3C//DTD SVG 20010904//EN"
 "http://www.w3.org/TR/2001/REC-SVG-20010904/DTD/svg10.dtd">
<svg version="1.0" xmlns="http://www.w3.org/2000/svg"
 width="1501.000000pt" height="1501.000000pt" viewBox="0 0 1501.000000 1501.000000"
 preserveAspectRatio="xMidYMid meet">
<metadata>
Created by potrace 1.11, written by Peter Selinger 2001-2013
</metadata>
<g transform="translate(0.000000,1501.000000) scale(0.100000,-0.100000)"
fill="#000000" stroke="none">
<path d="M7407 13494 c-1 -1 -80 -5 -175 -9 -96 -3 -181 -8 -190 -10 -9 -1
-57 -6 -107 -10 -49 -3 -101 -8 -115 -10 -14 -2 -47 -6 -75 -10 -41 -5 -164
-24 -270 -40 -36 -6 -89 -16 -130 -25 -22 -5 -56 -12 -75 -15 -19 -3 -60 -12
-90 -20 -30 -8 -66 -16 -80 -18 -152 -28 -735 -216 -885 -287 -11 -5 -81 -36
-155 -69 -502 -222 -1047 -567 -1440 -910 -14 -12 -52 -46 -85 -74 -174 -150
-538 -530 -677 -707 -23 -30 -45 -57 -48 -60 -17 -16 -171 -225 -249 -339
-431 -628 -744 -1355 -906 -2103 -13 -62 -26 -126 -29 -143 -13 -69 -45 -264
-52 -315 -10 -78 -10 -77 -19 -165 -4 -44 -9 -87 -10 -97 -26 -138 -26 -940
-1 -1098 3 -14 7 -57 10 -96 4 -39 8 -80 10 -91 3 -11 7 -44 11 -74 12 -103
35 -233 81 -469 16 -85 84 -339 125 -475 227 -740 580 -1403 1070 -2011 53
-66 103 -127 111 -135 7 -8 51 -57 98 -109 540 -603 1245 -1118 1990 -1453
519 -233 1157 -415 1660 -472 30 -3 62 -8 70 -10 8 -2 51 -6 95 -10 44 -3 87
-8 95 -10 100 -25 873 -25 1065 0 17 2 61 7 98 10 37 4 78 8 90 11 12 2 47 6
77 9 30 3 66 7 80 10 14 3 41 7 60 10 19 3 46 7 60 10 14 2 41 6 60 9 71 11
329 68 460 102 74 20 140 37 145 38 6 1 71 22 145 46 74 24 140 45 145 46 65
18 380 144 538 216 198 90 487 244 642 342 177 112 434 289 523 361 9 7 58 46
107 86 284 228 582 521 820 804 37 44 77 92 89 106 13 14 71 90 129 170 59 79
110 149 114 154 5 6 38 55 74 110 379 571 653 1191 816 1840 19 77 37 149 39
160 2 11 6 30 9 43 17 77 42 203 51 262 3 25 8 52 9 61 15 81 33 217 49 379
22 217 29 752 12 970 -4 63 -10 133 -11 155 -1 22 -5 63 -9 90 -4 28 -8 68
-11 90 -10 92 -48 335 -66 413 -5 23 -12 59 -15 80 -3 20 -8 40 -10 43 -2 3
-6 21 -9 40 -11 63 -83 333 -130 482 -71 231 -140 411 -267 697 -142 322 -402
759 -641 1080 -82 110 -267 339 -312 386 -5 6 -44 48 -85 93 -182 200 -440
441 -670 625 -52 41 -100 79 -105 84 -34 28 -213 154 -327 230 -688 459 -1485
775 -2303 911 -120 20 -156 25 -250 36 -27 4 -61 8 -75 10 -14 2 -61 7 -105
10 -44 4 -93 9 -110 11 -54 7 -552 23 -558 18z m493 -348 c30 -3 91 -8 135
-11 44 -3 87 -7 95 -10 8 -2 47 -6 85 -10 39 -3 77 -8 85 -10 8 -3 31 -7 50
-9 173 -22 470 -86 690 -148 561 -157 1108 -410 1605 -741 110 -74 403 -291
450 -334 11 -10 67 -58 125 -107 98 -84 419 -398 485 -476 16 -19 48 -55 70
-80 22 -25 58 -68 80 -95 22 -27 52 -62 66 -79 59 -69 269 -363 345 -483 259
-409 454 -817 602 -1258 43 -128 114 -372 128 -439 8 -39 22 -101 28 -126 12
-48 27 -128 41 -205 2 -16 7 -41 10 -55 11 -59 15 -77 20 -115 2 -22 8 -58 11
-80 4 -22 8 -53 9 -70 5 -56 17 -170 21 -195 24 -148 23 -772 -1 -1005 -2 -22
-7 -68 -10 -103 -4 -35 -8 -71 -10 -80 -1 -9 -6 -42 -9 -72 -4 -30 -8 -66 -11
-80 -2 -14 -6 -43 -10 -65 -3 -22 -7 -47 -10 -55 -2 -8 -6 -37 -10 -64 -3 -27
-8 -52 -10 -55 -1 -3 -6 -24 -9 -46 -25 -162 -149 -594 -238 -833 -352 -946
-906 -1727 -1708 -2406 -296 -250 -720 -524 -1105 -712 -352 -171 -590 -262
-980 -374 -237 -68 -520 -124 -830 -165 -16 -2 -61 -7 -100 -10 -38 -4 -86 -8
-105 -10 -64 -8 -343 -19 -475 -19 -183 0 -440 13 -590 30 -33 3 -73 8 -90 9
-60 6 -253 36 -350 55 -55 10 -116 22 -135 25 -51 9 -341 82 -440 111 -431
128 -891 330 -1281 562 -216 128 -359 228 -652 452 -170 130 -449 393 -643
606 -681 747 -1167 1703 -1358 2674 -8 38 -20 95 -21 100 0 3 -4 27 -9 53 -4
27 -9 59 -12 70 -5 25 -41 316 -48 392 -26 260 -26 791 -1 1025 3 25 7 68 10
95 11 99 42 317 59 400 2 11 7 40 11 65 23 143 111 485 174 675 219 666 575
1316 1005 1835 200 241 447 495 672 690 649 566 1470 995 2301 1204 204 51
412 94 543 111 25 3 72 10 105 15 33 5 89 12 125 15 36 3 81 7 100 10 19 3 85
8 145 11 61 4 112 8 114 10 6 5 601 -4 661 -10z"/>
<path d="M7624 11600 c-64 -36 -95 -75 -176 -220 -121 -217 -221 -437 -328
-723 -56 -150 -65 -168 -89 -174 -46 -11 -99 -42 -119 -70 -11 -16 -27 -53
-35 -83 -9 -30 -23 -64 -30 -75 -14 -18 -12 -20 22 -36 39 -17 105 -69 97 -76
-2 -3 -31 14 -64 37 -63 45 -56 44 -167 25 -131 -23 -171 -63 -173 -175 -1
-90 -21 -120 -121 -179 -92 -54 -105 -75 -97 -145 8 -56 7 -59 -53 -171 -11
-21 -21 -54 -21 -72 0 -33 54 -188 71 -207 18 -20 7 -40 -61 -113 -94 -100
-134 -183 -133 -270 1 -75 26 -120 84 -152 43 -25 114 -27 163 -7 47 20 105
81 142 149 l30 57 24 -25 23 -24 -33 -83 c-55 -136 -62 -165 -44 -183 17 -16
134 -54 179 -58 27 -2 29 1 55 84 33 106 36 111 58 99 9 -5 54 -27 99 -49 45
-21 110 -61 145 -88 124 -94 328 -268 328 -279 0 -7 -8 -15 -17 -18 -15 -6
-15 -8 -3 -16 14 -9 20 -31 21 -73 0 -10 7 -21 15 -24 8 -3 14 -13 14 -22 0
-10 11 -24 25 -31 27 -15 33 -30 11 -30 -16 0 -25 -19 -19 -37 6 -18 40 -16
47 2 7 20 26 19 26 -1 0 -8 16 -22 35 -30 37 -15 59 -42 69 -86 3 -15 20 -43
36 -62 27 -30 29 -39 24 -77 -5 -35 -1 -52 17 -83 16 -28 24 -63 30 -129 4
-51 17 -119 29 -152 17 -48 20 -71 14 -115 -12 -86 -10 -100 16 -128 25 -26
52 -28 75 -6 13 13 15 32 11 103 -10 152 -12 165 -29 200 -17 34 -22 56 -32
158 -3 28 -9 62 -13 75 -5 13 -10 44 -11 71 -1 26 -15 91 -30 145 -19 64 -25
100 -18 107 6 7 11 6 14 -2 3 -9 13 -8 37 2 19 8 36 12 38 9 11 -10 -1 48 -12
61 -7 8 -11 15 -9 16 41 6 79 4 79 -5 0 -6 -9 -42 -20 -79 -15 -55 -16 -66 -5
-57 8 7 15 21 15 31 0 10 5 30 12 46 13 31 15 38 17 54 0 5 6 7 11 4 17 -10 2
-75 -25 -117 -13 -20 -27 -49 -30 -65 -4 -19 4 -9 26 30 21 37 37 56 46 53 8
-4 17 4 23 19 5 14 14 25 20 25 13 0 13 -27 0 -35 -16 -10 -11 -25 8 -25 10 0
25 13 33 29 12 24 18 27 37 20 26 -10 33 -69 7 -69 -23 0 -18 -17 8 -24 22 -6
22 -6 2 -22 -17 -12 -18 -16 -5 -24 8 -5 18 -6 22 -4 9 6 9 6 13 -101 2 -56
10 -95 25 -128 15 -35 22 -69 22 -118 0 -51 5 -76 18 -91 51 -63 51 50 0 245
-32 124 -44 207 -31 207 5 0 14 -14 21 -30 7 -17 18 -34 25 -38 6 -4 27 -36
45 -71 47 -87 49 -62 4 35 -27 58 -38 74 -42 59 -3 -14 -10 -4 -22 35 -42 129
46 71 183 -121 28 -39 47 -50 47 -27 0 7 -26 46 -59 88 -64 82 -105 156 -93
164 17 10 97 -42 149 -98 58 -62 79 -71 38 -16 -14 19 -25 40 -25 48 0 8 -18
32 -41 54 -49 48 -42 63 29 62 l47 -1 -30 14 -30 13 42 -5 c96 -14 183 90 213
255 7 36 16 72 20 81 9 17 -2 42 -34 78 l-21 24 28 -7 c23 -5 27 -3 27 14 0
28 34 26 53 -3 9 -14 26 -23 45 -25 28 -2 31 0 29 25 -2 22 -11 33 -41 48 -52
26 -90 61 -81 75 4 6 13 9 21 6 8 -3 14 -1 14 5 0 6 8 6 21 -1 17 -9 23 -8 34
6 11 16 10 20 -6 32 -23 16 -25 34 -3 25 12 -4 15 -2 12 8 -3 9 -17 13 -37 11
-22 -1 -30 1 -25 9 3 6 0 15 -7 20 -8 4 -15 18 -15 29 -1 11 1 18 4 15 10 -9
31 16 25 31 -3 9 -13 12 -31 7 -21 -5 -24 -3 -18 12 5 14 2 16 -13 12 -12 -3
-22 1 -25 9 -7 19 -19 18 -45 -5 -22 -19 -22 -20 -2 -30 11 -6 27 -11 36 -11
9 0 13 -5 9 -11 -3 -6 -18 -9 -32 -6 -29 6 -55 -14 -46 -36 8 -22 -45 -61 -63
-46 -7 7 -30 13 -51 14 -28 1 -38 6 -42 22 -3 11 -22 35 -42 54 -21 18 -38 40
-38 49 0 24 -32 50 -63 50 -17 0 -34 -10 -49 -30 l-24 -30 1 27 c0 25 -4 28
-30 28 -31 0 -35 4 -178 159 -67 72 -110 144 -122 204 -16 78 -8 507 11 582
46 184 2 252 -217 335 -110 43 -189 77 -189 83 0 2 15 24 32 49 49 67 111 107
198 128 152 35 189 71 312 300 42 77 86 158 98 180 13 22 43 78 67 125 24 47
54 98 67 115 23 32 28 56 11 62 -21 6 -23 3 -275 -363 -63 -92 -125 -179 -137
-193 -25 -30 -42 -22 -25 11 44 88 168 285 285 454 87 127 103 165 70 160 -16
-3 -56 -57 -316 -431 -60 -85 -113 -155 -118 -155 -24 0 -17 33 23 96 24 38
111 167 195 287 141 203 164 247 128 247 -7 0 -52 -57 -101 -127 -163 -236
-324 -442 -339 -436 -8 3 -15 9 -15 13 0 11 196 307 276 417 110 152 128 193
88 193 -7 0 -71 -78 -141 -172 -71 -95 -172 -231 -226 -303 -53 -71 -105 -147
-114 -167 -9 -21 -18 -36 -20 -34 -2 1 47 151 108 332 61 181 112 334 113 339
2 6 8 22 14 36 21 52 33 112 28 135 -9 33 -39 31 -102 -6z m-170 -872 c-4 -13
-8 -66 -9 -119 l-2 -95 -59 -98 c-51 -85 -65 -101 -107 -123 -59 -30 -336
-302 -359 -353 -27 -58 -31 -103 -14 -143 30 -74 121 -97 231 -58 30 11 55 15
55 11 0 -14 -104 -41 -162 -42 -99 -2 -158 53 -158 147 1 85 27 126 191 288
113 112 164 155 203 172 l52 23 68 206 c38 113 70 206 73 206 2 0 1 -10 -3
-22z m-690 -873 c28 -19 88 -70 134 -115 46 -44 113 -100 150 -124 101 -66
132 -108 132 -177 0 -40 -37 -115 -68 -140 -47 -36 -95 -23 -232 62 -73 46
-94 55 -208 84 -124 31 -184 57 -229 101 -50 49 -32 55 20 7 47 -43 89 -60
232 -94 90 -21 114 -31 237 -107 82 -51 139 -63 169 -36 30 27 59 88 59 125 0
56 -26 91 -113 149 -45 30 -118 91 -162 136 -100 101 -169 154 -201 154 -13 0
-24 5 -24 11 0 18 48 1 104 -36z m916 -21 c0 -3 -21 -14 -47 -26 -41 -18 -57
-20 -142 -13 -104 8 -145 8 -176 -1 -14 -4 -17 -3 -10 4 12 13 92 32 109 27
36 -13 189 -13 223 0 21 7 39 14 41 14 1 1 2 -2 2 -5z m-364 -189 c-9 -36 -59
-80 -106 -94 -48 -14 -68 -7 -24 9 52 18 79 38 96 72 16 30 16 39 4 85 -8 28
-11 54 -8 57 10 11 44 -104 38 -129z m-262 -430 c7 -39 -24 -107 -62 -134
-104 -74 -203 -73 -349 5 -100 53 -237 154 -209 154 4 0 55 -31 114 -68 166
-105 195 -117 282 -117 61 0 83 5 120 25 57 32 90 81 90 133 0 45 6 46 14 2z
m1429 -469 c9 -7 17 -20 17 -28 0 -8 6 -20 13 -27 10 -11 10 -13 0 -7 -12 6
-18 -5 -14 -26 0 -5 -6 -8 -14 -8 -18 0 -19 12 -3 28 9 9 9 12 -3 12 -8 0 -19
-4 -24 -9 -6 -5 -20 -12 -32 -16 -18 -5 -22 -3 -17 9 3 9 1 16 -5 16 -6 0 -11
13 -11 29 0 24 3 28 20 24 11 -3 20 -12 20 -19 0 -8 5 -14 10 -14 6 0 10 11
10 25 0 28 7 30 33 11z"/>
<path d="M8766 8621 c-3 -5 10 -21 29 -35 28 -21 39 -25 54 -17 19 11 22 26 8
49 -9 14 -83 17 -91 3z"/>
<path d="M7880 6601 c-79 -25 -116 -46 -165 -96 -102 -104 -138 -282 -86 -429
61 -173 211 -265 415 -253 243 13 386 162 387 402 1 235 -164 393 -410 393
-53 0 -107 -7 -141 -17z m210 -153 c141 -40 208 -212 135 -346 -69 -128 -240
-159 -361 -67 -89 68 -105 236 -32 335 54 74 160 106 258 78z"/>
<path d="M11523 6611 c-129 -33 -205 -132 -197 -255 6 -97 59 -145 216 -196
98 -31 133 -58 133 -100 0 -28 -6 -39 -35 -58 -54 -36 -138 -23 -198 31 l-23
21 -59 -64 c-33 -36 -59 -68 -60 -72 0 -13 96 -69 144 -83 27 -8 77 -15 110
-15 186 1 296 93 296 247 0 123 -49 172 -220 222 -86 26 -118 46 -125 80 -14
76 109 116 197 64 l36 -21 39 41 c79 85 79 85 57 102 -49 39 -110 58 -194 61
-47 2 -99 0 -117 -5z"/>
<path d="M3116 6528 l1 -73 109 -5 109 -5 0 -303 -1 -303 86 3 85 3 0 300 0
300 110 5 109 5 -1 63 c-1 34 -2 67 -2 72 -1 6 -109 10 -303 10 l-303 0 1 -72z"/>
<path d="M3917 6228 c1 -205 2 -376 2 -380 1 -5 39 -8 87 -8 l85 0 -1 108 c-1
59 -1 133 -1 165 l1 57 160 0 160 0 1 -32 c0 -18 0 -93 0 -165 l0 -133 85 0
c60 0 84 4 85 13 1 17 1 719 0 735 -1 8 -25 12 -86 12 l-85 0 0 -127 c1 -71 1
-134 1 -140 -1 -10 -40 -13 -161 -13 l-160 0 -1 48 c0 26 0 89 0 140 l1 92
-87 0 -88 0 2 -372z"/>
<path d="M4851 6220 l0 -380 273 0 272 0 0 78 -1 77 -185 5 -185 5 0 70 0 70
165 5 165 5 0 75 0 75 -165 5 -165 5 0 60 0 60 175 3 176 2 -1 80 0 80 -262 0
-262 0 0 -380z"/>
<path d="M6066 6223 l1 -378 85 -3 86 -3 -1 146 c0 80 2 147 4 150 3 2 52 5
110 6 112 1 159 13 214 50 98 67 105 263 12 348 -52 48 -114 59 -322 61 l-190
1 1 -378z m354 216 c59 -36 58 -113 -1 -142 -40 -19 -179 -23 -180 -5 0 7 -1
48 -2 91 l-2 78 77 -2 c55 -1 86 -7 108 -20z"/>
<path d="M6863 6220 l0 -380 271 0 271 0 0 78 0 77 -185 5 -185 5 0 70 0 70
165 5 165 5 0 78 1 77 -166 0 -166 0 1 63 1 62 175 3 175 2 0 80 0 80 -262 0
-261 0 0 -380z"/>
<path d="M8655 6221 l0 -381 88 0 c78 0 88 2 86 18 -1 9 -1 76 0 148 l1 132
123 4 c131 5 165 15 220 67 41 38 59 86 58 162 -1 77 -9 103 -47 149 -55 65
-94 74 -324 78 l-205 4 0 -381z m371 208 c30 -30 36 -67 16 -101 -21 -36 -45
-45 -134 -47 -88 -3 -85 -8 -80 106 l4 75 85 -5 c73 -3 88 -7 109 -28z"/>
<path d="M9451 6220 l0 -380 242 0 243 0 0 80 0 80 -156 0 -155 0 0 300 1 300
-88 0 -88 0 1 -380z"/>
<path d="M10142 6220 l-1 -380 272 0 272 0 0 80 1 80 -183 0 c-115 0 -183 4
-184 10 -1 6 -2 38 -3 73 l-1 62 165 5 165 5 0 75 0 75 -165 5 -165 5 0 60 0
60 175 5 175 5 1 78 0 77 -262 0 -262 0 0 -380z"/>
<path d="M10965 6581 c-3 -11 -8 -28 -10 -39 -2 -10 -12 -50 -23 -88 -11 -38
-23 -81 -26 -96 -3 -14 -9 -34 -12 -43 -6 -14 2 -16 66 -13 l73 3 14 45 c8 25
17 52 20 60 4 8 7 17 8 20 8 29 45 139 50 153 6 15 -1 17 -73 17 -71 0 -81 -2
-87 -19z"/>
<path d="M5179 5298 c0 -1 -1 -173 -2 -381 l-2 -377 87 0 88 0 -1 146 c-1 80
1 147 3 149 2 2 50 5 108 6 123 2 181 18 231 66 77 73 83 229 14 311 -58 67
-91 76 -322 80 -112 2 -203 2 -204 0z m358 -164 c33 -25 43 -58 30 -97 -13
-39 -50 -54 -138 -56 l-77 -2 -3 48 c-2 26 -3 68 -1 92 l3 43 79 -4 c60 -2 85
-8 107 -24z"/>
<path d="M6105 5225 c-19 -42 -35 -78 -35 -80 0 -3 -12 -30 -26 -62 -15 -32
-35 -76 -45 -98 -18 -42 -178 -411 -186 -432 -4 -10 18 -13 89 -13 l95 0 30
78 30 77 149 3 149 2 31 -77 31 -78 97 -3 c53 -1 96 -1 96 2 0 5 -24 61 -60
141 -12 28 -28 64 -35 80 -98 226 -129 297 -146 335 -11 25 -35 79 -53 120
l-32 75 -72 3 -72 3 -35 -76z m144 -266 c22 -58 41 -108 41 -112 0 -4 -38 -7
-85 -7 -47 0 -85 4 -85 9 0 12 82 222 86 219 1 -2 20 -51 43 -109z"/>
<path d="M6799 5293 c-1 -11 -1 -725 0 -740 1 -9 25 -13 85 -13 l84 0 1 253
c0 138 0 259 1 267 0 13 64 -80 103 -150 8 -14 44 -74 82 -135 37 -60 85 -137
105 -170 l37 -60 114 -3 114 -3 0 381 0 380 -86 0 -87 0 0 -67 c0 -38 -1 -156
-1 -263 l-1 -195 -24 40 c-14 22 -31 51 -39 65 -8 14 -68 113 -134 220 l-121
195 -116 3 c-64 1 -116 -1 -117 -5z"/>
<path d="M7719 5293 c-1 -12 -1 -95 0 -120 1 -22 4 -23 109 -23 l107 0 0 -305
0 -306 85 3 85 3 0 300 0 300 108 3 c59 1 107 6 108 10 0 4 1 37 2 75 l2 67
-302 0 c-167 0 -303 -3 -304 -7z"/>
<path d="M8519 5288 c-1 -17 -1 -719 0 -735 1 -9 25 -13 86 -13 l85 0 -1 88
c0 48 0 117 0 155 l1 67 39 0 40 0 78 -155 78 -155 103 0 103 0 -32 58 c-18
31 -61 104 -96 162 l-63 105 37 13 c77 26 124 99 124 190 1 111 -53 187 -153
217 -68 20 -428 22 -429 3z m348 -140 c52 -14 75 -84 42 -125 -17 -20 -77 -33
-151 -33 l-66 0 -4 53 c-1 28 -2 67 0 85 l3 33 72 -2 c40 -1 87 -6 104 -11z"/>
<path d="M9199 5283 c5 -10 69 -108 142 -218 l133 -200 0 -162 1 -163 85 0 86
0 -1 161 c-1 141 2 165 17 185 10 12 18 24 18 26 0 2 56 89 125 193 l125 190
-92 3 c-50 1 -97 1 -103 -2 -6 -2 -47 -63 -90 -135 -43 -72 -82 -130 -87 -129
-4 2 -41 62 -81 133 l-74 130 -107 3 c-100 3 -106 2 -97 -15z"/>
<path d="M6261 3856 c-48 -17 -108 -71 -133 -119 -33 -62 -31 -176 2 -237 49
-88 114 -125 220 -124 118 0 196 52 230 154 33 98 14 193 -54 268 -52 58 -183
87 -265 58z m169 -57 c66 -32 102 -90 105 -170 5 -130 -95 -224 -216 -205
-149 24 -209 218 -104 335 55 60 142 76 215 40z"/>
<path d="M7374 3859 c-51 -12 -118 -68 -146 -122 -31 -62 -33 -161 -3 -224 26
-56 88 -115 140 -130 32 -10 130 -11 165 -1 97 27 170 134 164 243 -3 69 -10
92 -38 136 -61 92 -158 125 -282 98z m157 -60 c148 -73 138 -306 -16 -364 -86
-33 -180 1 -228 83 -27 45 -30 138 -8 187 46 100 156 141 252 94z"/>
<path d="M9035 3862 c-49 -11 -118 -71 -148 -127 -30 -57 -30 -174 1 -231 26
-51 89 -107 137 -122 56 -17 153 -9 202 16 172 89 171 355 -2 445 -39 20 -142
31 -190 19z m157 -64 c94 -46 131 -175 81 -276 -30 -60 -83 -95 -149 -98 -67
-3 -98 7 -137 44 -60 56 -79 140 -52 222 36 109 154 159 257 108z"/>
<path d="M5638 3844 c-3 -3 -4 -14 -1 -24 4 -16 16 -20 81 -22 l76 -3 -1 -207
0 -208 29 0 28 0 0 210 0 210 80 0 c79 0 80 0 80 25 l0 25 -183 0 c-101 0
-186 -3 -189 -6z"/>
<path d="M6759 3803 c0 -56 0 -380 1 -406 0 -14 7 -18 27 -15 l28 3 0 100 0
100 38 0 c36 0 41 -4 64 -45 14 -25 31 -52 38 -60 6 -8 23 -34 35 -57 21 -38
28 -43 58 -43 l34 0 -28 48 c-15 26 -39 65 -54 87 -42 62 -45 81 -16 89 75 19
110 119 64 186 -31 45 -69 57 -190 59 l-98 2 -1 -48z m210 -18 c57 -29 55
-102 -4 -132 -11 -6 -49 -11 -85 -12 l-65 -2 -1 80 0 81 64 0 c36 0 75 -6 91
-15z"/>
<path d="M7850 3615 l0 -236 28 3 27 3 0 193 c0 218 -9 210 82 77 26 -38 50
-72 53 -75 3 -3 19 -25 35 -50 16 -25 33 -47 36 -50 3 -3 20 -26 38 -52 28
-42 37 -48 66 -48 29 0 35 4 35 23 1 46 2 413 1 430 -1 12 -9 17 -29 17 l-27
0 0 -186 c0 -102 -2 -187 -5 -189 -3 -1 -64 81 -135 184 -127 180 -132 186
-168 189 l-37 3 0 -236z"/>
<path d="M8390 3825 c0 -25 1 -25 78 -25 l77 0 -1 -210 0 -210 28 0 28 0 0
210 0 210 81 0 c78 0 80 1 77 23 -3 22 -5 22 -185 25 l-183 2 0 -25z"/>
</g>
</svg>
